<svg xmlns="http://www.w3.org/2000/svg" viewBox="0 0 512 512" width="512" height="512">
  <!-- Full bleed background (maskable — no rounded corners, safe zone is inner 80%) -->
  <defs>
    <linearGradient id="bg" x1="0" y1="0" x2="512" y2="512" gradientUnits="userSpaceOnUse">
      <stop offset="0%" stop-color="#0d47a1"/>
      <stop offset="100%" stop-color="#003178"/>
    </linearGradient>
  </defs>
  <rect width="512" height="512" fill="url(#bg)"/>
  <!-- Content kept in 80% safe zone (102–410 range) -->
  <g transform="translate(256,256)">
    <path d="M-8,-94 C-4,-94 13,-76 29,-41 L110,8 L110,26 L29,8 L16,67 L37,80 L37,94 L-3,80 L-8,94 L-13,80 L-53,94 L-53,80 L-32,67 L-45,8 L-126,26 L-126,8 L-45,-41 C-29,-76 -12,-94 -8,-94 Z"
      fill="white" fill-opacity="0.95"/>
  </g>
  <circle cx="370" cy="152" r="22" fill="#a0f399" fill-opacity="0.85"/>
  <circle cx="370" cy="152" r="13" fill="#1b6d24"/>
</svg>
