<svg xmlns="http://www.w3.org/2000/svg" viewBox="0 0 192 192" width="192" height="192">
  <!-- Background -->
  <rect width="192" height="192" rx="40" fill="#003178"/>
  <!-- Gradient overlay -->
  <defs>
    <linearGradient id="bg" x1="0" y1="0" x2="192" y2="192" gradientUnits="userSpaceOnUse">
      <stop offset="0%" stop-color="#0d47a1"/>
      <stop offset="100%" stop-color="#003178"/>
    </linearGradient>
  </defs>
  <rect width="192" height="192" rx="40" fill="url(#bg)"/>
  <!-- Airplane silhouette centered -->
  <g transform="translate(96,96)">
    <!-- Main fuselage -->
    <path d="M-4,-44 C-2,-44 6,-36 14,-20 L52,4 L52,12 L14,4 L8,32 L18,38 L18,44 L-2,38 L-4,44 L-6,38 L-26,44 L-26,38 L-16,32 L-22,4 L-60,12 L-60,4 L-22,-20 C-14,-36 -6,-44 -4,-44 Z"
      fill="white" fill-opacity="0.95"/>
  </g>
  <!-- Price tracking dot pulse -->
  <circle cx="148" cy="52" r="10" fill="#a0f399" fill-opacity="0.9"/>
  <circle cx="148" cy="52" r="6" fill="#1b6d24"/>
</svg>
