<svg xmlns="http://www.w3.org/2000/svg" viewBox="0 0 512 512" width="512" height="512">
  <defs>
    <linearGradient id="bg" x1="0" y1="0" x2="512" y2="512" gradientUnits="userSpaceOnUse">
      <stop offset="0%" stop-color="#0d47a1"/>
      <stop offset="100%" stop-color="#003178"/>
    </linearGradient>
  </defs>
  <!-- Background -->
  <rect width="512" height="512" rx="108" fill="url(#bg)"/>
  <!-- Airplane silhouette centered -->
  <g transform="translate(256,256)">
    <path d="M-10,-118 C-5,-118 16,-96 36,-52 L138,10 L138,32 L36,10 L20,84 L46,100 L46,118 L-4,100 L-10,118 L-16,100 L-66,118 L-66,100 L-40,84 L-56,10 L-158,32 L-158,10 L-56,-52 C-36,-96 -15,-118 -10,-118 Z"
      fill="white" fill-opacity="0.95"/>
  </g>
  <!-- Price tracking indicator -->
  <circle cx="394" cy="138" r="28" fill="#a0f399" fill-opacity="0.85"/>
  <circle cx="394" cy="138" r="16" fill="#1b6d24"/>
  <!-- Trend line hint -->
  <polyline points="118,380 168,340 218,360 268,310 318,290" stroke="white" stroke-opacity="0.2" stroke-width="6" fill="none" stroke-linecap="round" stroke-linejoin="round"/>
</svg>
